<?xml version="1.0" encoding="UTF-8"?>
<svg width="24px" height="24px" viewBox="0 0 24 24" version="1.1" xmlns="http://www.w3.org/2000/svg" xmlns:xlink="http://www.w3.org/1999/xlink">
    <!-- Generator: Sketch 63.1 (92452) - https://sketch.com -->
    <title>alipay@1x</title>
    <desc>Created with Sketch.</desc>
    <defs>
        <path d="M6.16674227,0 C3.99360898,0 2.61590842,0.00839846954 1.31363782,1.31055187 C0.00824221894,2.61598654 0,4.0002887 0,6.16674227 L0,13.8334903 C0,16.0067017 0.00851565748,17.3845585 1.31055187,18.6865947 C2.61665061,19.9926544 4.00036682,20.0002325 6.16674227,20.0002325 L13.8334903,20.0002325 C16.0067017,20.0002325 17.3841288,19.9921075 18.6865947,18.6896807 C19.9917559,17.3844804 20.0002325,15.9998657 20.0002325,13.8334903 L20.0002325,6.16674227 C20.0002325,3.99360898 19.9918731,2.61586935 18.6896807,1.31363782 C17.3836991,0.00765627921 15.9998657,0 13.8334903,0 L6.16674227,0 Z" id="path-1"></path>
    </defs>
    <g id="页面-1" stroke="none" stroke-width="1" fill="none" fill-rule="evenodd">
        <g id="申请体验-支付-弹框" transform="translate(-699.000000, -465.000000)">
            <g id="编组-10" transform="translate(619.000000, 344.000000)">
                <g id="编组-8" transform="translate(60.000000, 112.000000)">
                    <g id="编组-3" transform="translate(20.000000, 9.000000)">
                        <g id="alipay">
                            <g transform="translate(2.000000, 2.000000)">
                                <mask id="mask-2" fill="white">
                                    <use xlink:href="#path-1"></use>
                                </mask>
                                <use id="Mask" fill="#00AAEE" xlink:href="#path-1"></use>
                                <path d="M10.67835,2 L10.678,4.293 L15.7133012,4.29382117 L15.7133012,5.05842822 L10.678,5.058 L10.678,6.842 L14.9580585,6.84251136 C14.4096758,8.91551241 13.2707706,11.0599734 13.1954529,11.2006341 L13.1915232,11.2079522 L20.738542,13.8754589 L21,17 L12.0595201,12.9801506 C11.8051301,13.1861739 9.05200821,15.9267576 6.29587767,16.3286665 C1.69214206,17 1.15017183,14.2717939 1.04476484,13.4870885 C0.939357839,12.7023832 0.579806278,8.87601892 6.29587745,9.25393566 C8.42028205,9.39439019 11.3385722,10.5076535 11.3385722,10.5076535 C11.3385722,10.5076535 12.0883059,9.11796204 12.3536879,7.60787996 L4.63640846,7.60711841 L4.63640846,6.84251136 L8.664,6.842 L8.664,5.058 L3.62941821,5.05842822 L3.62941821,4.29382117 L8.664,4.293 L8.66436945,2 L10.67835,2 Z M5.21488699,10.3548006 C3.02260579,10.3548006 1.89951419,11.3571126 1.89951419,12.7780571 C1.89951419,14.1990017 3.06316669,15.3543144 5.21488699,15.1416216 C7.71208021,14.8947794 10.3546921,12.1253189 10.3546921,12.1253189 C10.3546921,12.1253189 7.41595723,10.3548006 5.21488699,10.3548006 Z" id="Rectangle-1" fill="#FFFFFF" mask="url(#mask-2)"></path>
                            </g>
                        </g>
                    </g>
                </g>
            </g>
        </g>
    </g>
</svg>