<?xml version="1.0" encoding="UTF-8"?>
<svg width="24px" height="24px" viewBox="0 0 24 24" version="1.1" xmlns="http://www.w3.org/2000/svg" xmlns:xlink="http://www.w3.org/1999/xlink">
    <!-- Generator: Sketch 63.1 (92452) - https://sketch.com -->
    <title>wechat@1x</title>
    <desc>Created with Sketch.</desc>
    <defs>
        <radialGradient cx="50%" cy="0%" fx="50%" fy="0%" r="127.090233%" gradientTransform="translate(0.500000,0.000000),scale(0.904155,1.000000),rotate(90.000000),translate(-0.500000,-0.000000)" id="radialGradient-1">
            <stop stop-color="#95FF00" offset="0%"></stop>
            <stop stop-color="#69CC15" offset="100%"></stop>
        </radialGradient>
        <radialGradient cx="50%" cy="0%" fx="50%" fy="0%" r="95.0299192%" gradientTransform="translate(0.500000,0.000000),scale(0.874479,1.000000),rotate(90.000000),translate(-0.500000,-0.000000)" id="radialGradient-2">
            <stop stop-color="#FFFFFF" offset="0%"></stop>
            <stop stop-color="#DFEAEB" offset="100%"></stop>
        </radialGradient>
        <linearGradient x1="50%" y1="0%" x2="50%" y2="100%" id="linearGradient-3">
            <stop stop-color="#1F9E47" offset="0%"></stop>
            <stop stop-color="#0C7B2F" offset="100%"></stop>
        </linearGradient>
        <linearGradient x1="50%" y1="0%" x2="50%" y2="100%" id="linearGradient-4">
            <stop stop-color="#5C7564" offset="0%"></stop>
            <stop stop-color="#495E4F" offset="100%"></stop>
        </linearGradient>
        <linearGradient x1="50%" y1="0%" x2="50%" y2="100%" id="linearGradient-5">
            <stop stop-color="#607B68" offset="0%"></stop>
            <stop stop-color="#495E4F" offset="100%"></stop>
        </linearGradient>
    </defs>
    <g id="页面-1" stroke="none" stroke-width="1" fill="none" fill-rule="evenodd">
        <g id="申请体验-支付-弹框" transform="translate(-841.000000, -465.000000)">
            <g id="编组-10" transform="translate(619.000000, 344.000000)">
                <g id="编组-9" transform="translate(196.000000, 112.000000)">
                    <g id="编组-6" transform="translate(26.000000, 9.000000)">
                        <g id="编组-7">
                            <g id="wechat" transform="translate(1.000000, 3.000000)">
                                <g id="Group">
                                    <path d="M16.4030631,7.0392872 C16.4030631,10.8977729 12.7345094,14.0256986 8.20914089,14.0256986 C7.16802741,14.0256986 6.17211758,13.8601447 5.25589484,13.5581811 C4.63526143,13.8601445 2.57494276,14.869949 2.57494276,14.869949 C2.57494276,14.869949 2.85019649,13.5581813 3.04761578,12.4655999 C1.19748191,11.1845592 0.0153080036,9.22966386 0.0153080036,7.0392872 C0.0153080036,3.18089456 3.68377239,0.052875787 8.20914089,0.052875787 C12.7345094,0.052875787 16.4030631,3.18089456 16.4030631,7.0392872 Z" id="Path-Copy-6" fill="url(#radialGradient-1)"></path>
                                    <path d="M8.15124891,11.6186747 C8.15124891,14.763615 11.2474409,17.3131387 15.0667549,17.3131387 C15.9454865,17.3131387 16.7859226,17.1781293 17.5592065,16.9319996 C18.1741671,17.1781294 19.8218844,18.001216 19.8218844,18.001216 C19.8218844,18.001216 19.5827384,16.7899438 19.4231065,16.0414082 C20.984507,14.9973478 21.9822608,13.4039294 21.9822608,11.6186747 C21.9822608,8.47355332 18.8860688,5.92412015 15.0667549,5.92412015 C11.2474409,5.92412015 8.15124891,8.47355332 8.15124891,11.6186747 Z" id="Path-Copy" fill="url(#radialGradient-2)"></path>
                                    <path d="M5.27331096,3.36762598 C5.89324434,3.36762598 6.39580512,3.85897492 6.39580512,4.46518695 C6.39580512,5.07131063 5.89324434,5.56274793 5.27331096,5.56274793 C4.65337758,5.56274793 4.15090716,5.07131063 4.15090716,4.46518695 C4.15090716,3.85897492 4.65337758,3.36762598 5.27331096,3.36762598 L5.27331096,3.36762598 Z" id="Path-Copy-2" fill="url(#linearGradient-3)"></path>
                                    <path d="M11.1575762,3.36762598 C11.7774192,3.36762598 12.27998,3.85897492 12.27998,4.46518695 C12.27998,5.07131063 11.7774192,5.56274793 11.1575762,5.56274793 C10.5376428,5.56274793 10.035082,5.07131063 10.035082,4.46518695 C10.035082,3.85897492 10.5376428,3.36762598 11.1575762,3.36762598 L11.1575762,3.36762598 Z" id="Path-Copy-3" fill="url(#linearGradient-3)"></path>
                                    <path d="M13.5811568,9.70170591 C13.5811568,10.2471675 13.1289137,10.6894608 12.5709527,10.6894608 C12.0129918,10.6894608 11.5607486,10.2471675 11.5607486,9.70170591 C11.5607486,9.15614422 12.0129918,8.713851 12.5709527,8.713851 C13.1289137,8.713851 13.5811568,9.15614422 13.5811568,9.70170591 Z" id="Path-Copy-4" fill="url(#linearGradient-4)"></path>
                                    <path d="M17.5466936,8.713851 C18.1045239,8.713851 18.5568465,9.15614422 18.5568465,9.70170591 C18.5568465,10.2471675 18.1045239,10.6894608 17.5466936,10.6894608 C16.9888632,10.6894608 16.5364383,10.2471675 16.5364383,9.70170591 C16.5364383,9.15614422 16.9888632,8.713851 17.5466936,8.713851 L17.5466936,8.713851 Z" id="Path-Copy-5" fill="url(#linearGradient-5)"></path>
                                </g>
                            </g>
                        </g>
                    </g>
                </g>
            </g>
        </g>
    </g>
</svg>