<?xml version="1.0" encoding="UTF-8"?>
<svg width="60px" height="60px" viewBox="0 0 60 60" version="1.1" xmlns="http://www.w3.org/2000/svg" xmlns:xlink="http://www.w3.org/1999/xlink">
    <title>icon1</title>
    <g id="页面-1" stroke="none" stroke-width="1" fill="none" fill-rule="evenodd">
        <g id="技术方案" transform="translate(-507.000000, -1160.000000)" fill="#FFFFFF">
            <g id="分组-2" transform="translate(507.000000, 1160.000000)">
                <g id="icon1" transform="translate(3.000000, 1.000000)">
                    <path d="M26.500038,4.34866342 C25.2316319,4.34866342 23.9801937,4.96297961 22.7805721,6.17460385 C21.554015,7.41342613 20.4453961,9.2037019 19.4856076,11.4956055 C17.4762453,16.2937754 16.3696047,22.6878636 16.3696047,29.5000375 C16.3696047,36.3122113 17.4762453,42.7062246 19.4856076,47.5043945 C20.4453961,49.7962981 21.554015,51.5865739 22.7805721,52.8253962 C23.9801937,54.0370204 25.2316319,54.6513366 26.500038,54.6513366 C27.7684442,54.6513366 29.0198824,54.0370204 30.2194279,52.8253962 C31.4460611,51.5865739 32.55468,49.7962981 33.5144685,47.5043945 C35.5238308,42.7062246 36.6303953,36.3122113 36.6303953,29.5000375 C36.6303953,22.6878636 35.5238308,16.2937004 33.5144685,11.4956055 C32.55468,9.2037019 31.4460611,7.41342613 30.2194279,6.17460385 C29.0198824,4.96297961 27.7684442,4.34866342 26.500038,4.34866342 M26.500038,56 C23.315631,56 20.3748615,53.1654841 18.219408,48.0186099 C16.1433917,43.0611479 15,36.4843907 15,29.5000375 C15,22.5155344 16.1433917,15.9388521 18.219408,10.9813901 C20.3748615,5.83451589 23.315631,3 26.500038,3 C29.6844451,3 32.6252146,5.83451589 34.7806681,10.9813901 C36.8566844,15.9388521 38,22.5155344 38,29.5000375 C38,36.4843907 36.8566844,43.0611479 34.7806681,48.0186099 C32.6252146,53.1654841 29.6844451,56 26.500038,56" id="Fill-1"></path>
                    <path d="M41.9614903,13.3675993 C41.1142127,13.3675993 40.2093986,13.4215826 39.250048,13.5297773 C33.9560818,14.1267872 27.6692278,16.2965365 21.5478294,19.6393205 C15.4263541,22.9821046 10.2215387,27.0876501 6.89211824,31.1997345 C5.30179,33.163891 4.23498167,35.0119453 3.72130757,36.6927274 C3.21901769,38.3364815 3.27863096,39.7325205 3.89876282,40.8419158 C4.51881776,41.9514631 5.68262266,42.7445617 7.35779403,43.1992381 C9.07065639,43.6641029 11.2212724,43.7552663 13.7500289,43.4702192 C19.0439951,42.8732093 25.3307722,40.70346 31.4521706,37.3605999 C37.5736459,34.0178159 42.7785383,29.9122703 46.1079587,25.800262 C47.6982869,23.8361055 48.7650183,21.9879751 49.2786924,20.3072691 C49.7810592,18.663439 49.721369,17.2674759 49.1012372,16.1580047 C48.4812592,15.0485334 47.3174543,14.2554348 45.6422829,13.8006823 C44.5792437,13.5121377 43.3475181,13.3675993 41.9614903,13.3675993 M11.0448941,45 C6.88873374,45 3.96706809,43.7943472 2.68680579,41.5037817 C1.13016867,38.7184705 2.2396678,34.7554105 5.81107964,30.344517 C9.25103461,26.0959537 14.6019987,21.8686796 20.8783147,18.441347 C27.1545537,15.0140905 33.6234013,12.7868604 39.0930535,12.1700059 C44.7719291,11.5297333 48.7564802,12.7108275 50.3131942,15.4962148 C51.8698313,18.28145 50.7603322,22.24451 47.1889204,26.6554034 C43.7489654,30.9039667 38.3980013,35.1312408 32.1217622,38.5585734 C25.8454463,41.985906 19.3766756,44.2131361 13.9069465,44.8299145 C12.8983668,44.9436597 11.9425546,45 11.0448941,45" id="Fill-3"></path>
                    <path d="M12.1337565,13.3836465 C11.6992052,13.3580152 11.2714099,13.3450874 10.8622515,13.3450874 L10.8608537,13.3450874 C10.6839581,13.3450874 10.5065966,13.3475534 10.333739,13.3523359 L10.293359,12.0077716 C10.4796507,12.0026154 10.670524,12 10.8607761,12 L10.8625621,12 C11.2999089,12 11.7562809,12.0138245 12.2191758,12.0410252 L12.1337565,13.3836465 Z M15.7378293,13.8373146 C15.1262272,13.7238042 14.5209927,13.6285272 13.9389767,13.5541737 L14.1230165,12.2207438 C14.7319007,12.2986094 15.3642364,12.3981459 16.0023962,12.5165136 L15.7378293,13.8373146 Z M6.86742419,13.8814036 L6.42456399,12.6055135 C7.01286995,12.4165287 7.66190125,12.26969 8.35364221,12.1692568 L8.56229824,13.4992493 C7.94976426,13.5881746 7.37955167,13.7167799 6.86742419,13.8814036 L6.86742419,13.8814036 Z M19.2944557,14.6724644 C18.6990832,14.5051505 18.1034778,14.3510633 17.5241797,14.2144622 L17.8567713,12.9080087 C18.4558712,13.0492429 19.071356,13.2084863 19.6862973,13.3812553 L19.2944557,14.6724644 Z M4.18222993,15.6246368 L3.05120086,14.8343233 C3.45321511,14.3014445 3.96891467,13.8345497 4.58385591,13.4467162 L5.35006696,14.5716576 C4.87731001,14.8698934 4.48438126,15.2240997 4.18222993,15.6246368 L4.18222993,15.6246368 Z M22.7787862,15.7944915 C22.2000317,15.5851809 21.6172392,15.3857344 21.046483,15.2016069 L21.490741,13.9262398 C22.0773385,14.1154488 22.6762054,14.3204252 23.2705684,14.535415 L22.7787862,15.7944915 Z M26.1797165,17.1507132 C25.6185894,16.9063557 25.0501628,16.6690972 24.4902006,16.4456632 L25.0257019,15.2031761 C25.5992536,15.4321399 26.1814249,15.6750776 26.7559861,15.9252639 L26.1797165,17.1507132 Z M2.02422802,18.6841128 C2.00815366,18.4903455 2,18.2971013 2,18.1097605 C2,17.616786 2.05629908,17.1401767 2.16718885,16.6931593 L3.52675335,17.0055932 C3.44117875,17.3503839 3.39777022,17.721927 3.39777022,18.1097605 C3.39777022,18.2614565 3.40444846,18.4186822 3.41757197,18.5768794 L2.02422802,18.6841128 Z M29.49018,18.7096695 C28.9462144,18.434076 28.3933186,18.1637882 27.8467128,17.9062787 L28.4614211,16.6982407 C29.0201409,16.9615042 29.585306,17.237845 30.1413079,17.5194166 L29.49018,18.7096695 Z M32.7027218,20.4516323 C32.3731587,20.2608541 32.0362961,20.0699264 31.7015301,19.883856 C31.5041339,19.7742314 31.3065824,19.6657277 31.1091085,19.5586438 L31.7954137,18.3868485 C31.9971585,18.4962489 32.1988257,18.6069197 32.4004929,18.7190103 C32.742403,18.9089666 33.0864098,19.104079 33.4229618,19.2988925 L32.7027218,20.4516323 Z M3.11479941,22.3411812 C2.82336432,21.7399271 2.58566572,21.147192 2.40830421,20.5794156 L3.74697982,20.1921799 C3.90500551,20.6980822 4.11855374,21.2298401 4.3815675,21.7727323 L3.11479941,22.3411812 Z M35.80616,22.366962 C35.3042829,22.0367431 34.7871855,21.7072714 34.2691563,21.387589 L35.0237193,20.2553243 C35.5531636,20.5821058 36.081909,20.9189755 36.5951237,21.2566671 L35.80616,22.366962 Z M38.7813139,24.4573773 C38.3038978,24.0988367 37.8093201,23.7397731 37.3112479,23.3899757 L38.1352335,22.303444 C38.6452643,22.6616856 39.1520337,23.029567 39.6410979,23.3968506 L38.7813139,24.4573773 Z M5.08247161,25.526647 C4.69769653,25.0084894 4.34266289,24.4894352 4.02738806,23.9839065 L5.22582071,23.2916349 C5.52207035,23.7666002 5.85644805,24.25539 6.219713,24.7445534 L5.08247161,25.526647 Z M41.6007718,26.7299024 C41.1541065,26.3424425 40.687096,25.9522177 40.2126306,25.5701382 L41.1097662,24.5386056 C41.5972774,24.9312217 42.0774114,25.3323566 42.5367343,25.7308014 L41.6007718,26.7299024 Z M7.48617047,28.3694892 C7.05006616,27.908722 6.6317446,27.4427987 6.24308682,26.9847217 L7.32565986,26.1339539 C7.69863155,26.5733492 8.10025753,27.0207402 8.51958859,27.4637223 L7.48617047,28.3694892 Z M44.2212803,29.1988103 C43.8145292,28.779965 43.3832394,28.3558888 42.9396027,27.9385381 L43.9166441,26.9767259 C44.375268,27.4081253 44.8213897,27.8467733 45.2424291,28.2804145 L44.2212803,29.1988103 Z M10.1630558,30.9496657 C9.69286139,30.5334358 9.23307264,30.109285 8.79626944,29.6890946 L9.7846483,28.7378936 C10.2077068,29.144932 10.6534401,29.5560057 11.1093462,29.9596813 L10.1630558,30.9496657 Z M46.5658846,31.8871168 C46.2167526,31.4344949 45.8363262,30.9724574 45.4350108,30.5137826 L46.5042274,29.6473969 C46.9238691,30.1269953 47.3222336,30.6108531 47.6882164,31.08537 L46.5658846,31.8871168 Z M13.0364831,33.3102193 C12.5398864,32.9306057 12.049269,32.5420249 11.5782205,32.1555365 L12.4852957,31.1320744 C12.9439973,31.5085495 13.421957,31.8870421 13.9058961,32.2570159 L13.0364831,33.3102193 Z M48.4798979,34.8247129 C48.224106,34.3362968 47.9253714,33.8309923 47.5919256,33.3231471 L48.773585,32.6047209 C49.1310259,33.1491824 49.4522024,33.692523 49.7281844,34.2196478 L48.4798979,34.8247129 Z M16.0645193,35.4748385 C15.5468784,35.1284038 15.0315671,34.7721051 14.5331067,34.4160305 L15.3662554,33.3359254 C15.8533007,33.6839294 16.3567309,34.0320081 16.8625684,34.3705218 L16.0645193,35.4748385 Z M19.221228,37.4560775 C18.6866586,37.1414765 18.1506137,36.8157411 17.6280806,36.4879135 L18.3914185,35.3611786 C18.9026917,35.6819072 19.4272438,36.0006929 19.9504758,36.3084938 L19.221228,37.4560775 Z M49.5973376,38.0017346 C49.5207708,37.492619 49.3792854,36.9505488 49.1766864,36.3904694 L50.4968027,35.948384 C50.7285996,36.5893181 50.8913622,37.2152321 50.9807418,37.8089387 L49.5973376,38.0017346 Z M22.4892148,39.2587187 C21.9401241,38.9754284 21.3859082,38.6795839 20.8420203,38.3795547 L21.537178,37.2126166 C22.0697284,37.5063688 22.6122186,37.7959362 23.1497389,38.0733231 L22.4892148,39.2587187 Z M25.8613355,40.8779797 C25.2974905,40.6272704 24.7258801,40.362886 24.1625011,40.0921498 L24.7868385,38.888745 C25.3377929,39.1533535 25.8965127,39.4118345 26.4477001,39.6569393 L25.8613355,40.8779797 Z M29.3339403,42.2960007 C28.7562729,42.0813846 28.1678117,41.8517483 27.5851744,41.6136678 L28.1316249,40.3755896 C28.7000515,40.6079161 29.2739915,40.8318731 29.8372929,41.0411089 L29.3339403,42.2960007 Z M49.6631104,42.5829527 L48.6220822,41.6853311 C48.8072868,41.4864823 48.97036,41.2701474 49.1069532,41.0423793 C49.3668608,40.6093359 49.5381653,40.1227879 49.6162075,39.5961115 L51,39.7860677 C50.896565,40.4835702 50.6669424,41.1324254 50.3174999,41.7148483 C50.1328389,42.0228733 49.9126124,42.3149814 49.6631104,42.5829527 L49.6631104,42.5829527 Z M32.9051656,43.4831898 C32.3146853,43.3107197 31.7097614,43.1215855 31.1071671,42.9208686 L31.5641603,41.649761 C32.1499814,41.8447987 32.7377438,42.0286273 33.3112178,42.1960906 L32.9051656,43.4831898 Z M36.5758655,44.3900029 C35.9721841,44.2696923 35.3505646,44.130401 34.7280132,43.9759401 L35.0768346,42.6735219 C35.6777981,42.8225277 36.2775192,42.9569617 36.8593022,43.0728634 L36.5758655,44.3900029 Z M46.1404965,44.5411758 L45.7667483,43.2449599 C46.3538894,43.0882572 46.8846538,42.8854479 47.3442873,42.642286 L48.0177019,43.8209562 C47.4633307,44.11426 46.8316939,44.3565999 46.1404965,44.5411758 L46.1404965,44.5411758 Z M40.3465836,44.9248246 C39.7353698,44.8769992 39.0968994,44.8055601 38.4487999,44.7123755 L38.6553593,43.3820093 C39.2725525,43.4707104 39.8796507,43.5387867 40.4597254,43.5840714 L40.3465836,44.9248246 Z M42.2670423,45 L42.262616,43.6549126 C42.8875746,43.6530444 43.487218,43.6208371 44.0449283,43.5591872 L44.2043518,44.8955315 C43.5953899,44.9627859 42.943563,44.9979824 42.2670423,45 L42.2670423,45 Z" id="Fill-5"></path>
                    <path d="M55,15 C55,17.2091879 53.2091879,19 51,19 C48.7908893,19 47,17.2091879 47,15 C47,12.7908121 48.7908893,11 51,11 C53.2091879,11 55,12.7908121 55,15" id="Fill-7"></path>
                    <path d="M31,4 C31,6.20918791 29.2091879,8 27,8 C24.7908893,8 23,6.20918791 23,4 C23,1.79081209 24.7908893,0 27,0 C29.2091879,0 31,1.79081209 31,4" id="Fill-9"></path>
                    <path d="M8,15.0000386 C8,17.209128 6.20911073,19 4,19 C1.79081209,19 0,17.209128 0,15.0000386 C0,12.790872 1.79081209,11 4,11 C6.20911073,11 8,12.790872 8,15.0000386" id="Fill-11"></path>
                    <path d="M55,42 C55,44.2091107 53.2091879,46 51,46 C48.7908893,46 47,44.2091107 47,42 C47,39.7908121 48.7908893,38 51,38 C53.2091879,38 55,39.7908121 55,42" id="Fill-13"></path>
                    <path d="M31,54 C31,56.2091107 29.2091107,58 27,58 C24.7908121,58 23,56.2091107 23,54 C23,51.7908893 24.7908121,50 27,50 C29.2091107,50 31,51.7908893 31,54" id="Fill-15"></path>
                    <path d="M8,43 C8,45.2091107 6.20911073,47 4,47 C1.79081209,47 0,45.2091107 0,43 C0,40.7908893 1.79081209,39 4,39 C6.20911073,39 8,40.7908893 8,43" id="Fill-17"></path>
                    <path d="M31,29 C31,31.2091879 29.2091107,33 27,33 C24.7908121,33 23,31.2091879 23,29 C23,26.7908121 24.7908121,25 27,25 C29.2091107,25 31,26.7908121 31,29" id="Fill-19"></path>
                </g>
            </g>
        </g>
    </g>
</svg>