<?xml version="1.0" encoding="UTF-8"?>
<svg width="60px" height="60px" viewBox="0 0 60 60" version="1.1" xmlns="http://www.w3.org/2000/svg" xmlns:xlink="http://www.w3.org/1999/xlink">
    <title>icon3</title>
    <defs>
        <polygon id="path-1" points="0.0471542857 0.04368 5.97045714 0.04368 5.97045714 5.96699429 0.0471542857 5.96699429"></polygon>
        <polygon id="path-3" points="0.0471542857 0.0358114286 5.97045714 0.0358114286 5.97045714 5.95912571 0.0471542857 5.95912571"></polygon>
    </defs>
    <g id="页面-1" stroke="none" stroke-width="1" fill="none" fill-rule="evenodd">
        <g id="技术方案" transform="translate(-1313.000000, -1175.000000)">
            <g id="分组-4" transform="translate(1313.000000, 1175.000000)">
                <g id="icon3" transform="translate(3.000000, 0.000000)">
                    <path d="M31,31 C31,32.6568909 29.656846,34 28.0000289,34 C26.343154,34 25,32.6568909 25,31 C25,29.343167 26.343154,28 28.0000289,28 C29.656846,28 31,29.343167 31,31" id="Fill-1" fill="#FEFEFE"></path>
                    <path d="M31,57 C31,58.6568909 29.6568909,60 28,60 C26.343167,60 25,58.6568909 25,57 C25,55.343167 26.343167,54 28,54 C29.6568909,54 31,55.343167 31,57" id="Fill-3" fill="#FEFEFE"></path>
                    <g id="编组" transform="translate(49.000000, 14.000000)">
                        <mask id="mask-2" fill="white">
                            <use xlink:href="#path-1"></use>
                        </mask>
                        <g id="Clip-6"></g>
                        <path d="M5.97046857,3.00533714 C5.97046857,4.64099429 4.64446857,5.96699429 3.00881143,5.96699429 C1.37309714,5.96699429 0.0471542857,4.64099429 0.0471542857,3.00533714 C0.0471542857,1.36962286 1.37309714,0.04368 3.00881143,0.04368 C4.64446857,0.04368 5.97046857,1.36962286 5.97046857,3.00533714" id="Fill-5" fill="#FEFEFE" mask="url(#mask-2)"></path>
                    </g>
                    <path d="M31,3 C31,4.65683305 29.6568909,6 28,6 C26.343167,6 25,4.65683305 25,3 C25,1.34310907 26.343167,0 28,0 C29.6568909,0 31,1.34310907 31,3" id="Fill-7" fill="#FEFEFE"></path>
                    <path d="M6,15.9999711 C6,17.656846 4.65689093,19 3,19 C1.34316695,19 0,17.656846 0,15.9999711 C0,14.343154 1.34316695,13 3,13 C4.65689093,13 6,14.343154 6,15.9999711" id="Fill-9" fill="#FEFEFE"></path>
                    <path d="M6,44 C6,45.656833 4.65689093,47 3,47 C1.34316695,47 0,45.656833 0,44 C0,42.3431091 1.34316695,41 3,41 C4.65689093,41 6,42.3431091 6,44" id="Fill-11" fill="#FEFEFE"></path>
                    <g id="编组" transform="translate(49.000000, 41.000000)">
                        <mask id="mask-4" fill="white">
                            <use xlink:href="#path-3"></use>
                        </mask>
                        <g id="Clip-14"></g>
                        <path d="M5.97046857,2.99746857 C5.97046857,4.63312571 4.64446857,5.95912571 3.00881143,5.95912571 C1.37309714,5.95912571 0.0471542857,4.63312571 0.0471542857,2.99746857 C0.0471542857,1.36181143 1.37309714,0.0358114286 3.00881143,0.0358114286 C4.64446857,0.0358114286 5.97046857,1.36181143 5.97046857,2.99746857" id="Fill-13" fill="#FEFEFE" mask="url(#mask-4)"></path>
                    </g>
                    <path d="M5.34877438,17.3239745 L27.8458795,55.3692823 L50.6408286,17.4904989 L5.34877438,17.3239745 Z M27.8354825,58 L3,16 L53,16.1837556 L27.8354825,58 Z" id="Fill-15" fill="#FEFEFE"></path>
                    <path d="M28.4289073,6.02900654 L27.2720083,5.35367901 L28.1031418,4 L29.2600409,4.67532753 L28.4289073,6.02900654 Z M29.675338,6.82798744 L28.8886331,5.44939369 L30.0669038,4.81009064 L30.8536086,6.18875013 L29.675338,6.82798744 Z M26.7666403,8.73636455 L25.6097413,8.06097129 L26.4408748,6.70729228 L27.5977738,7.38268555 L26.7666403,8.73636455 Z M31.2487476,9.58543789 L30.4620428,8.20671266 L31.6403134,7.56740961 L32.4270183,8.94613484 L31.2487476,9.58543789 Z M25.1043058,11.4436568 L23.9474068,10.7683293 L24.7785403,9.4146503 L25.9355068,10.0899778 L25.1043058,11.4436568 Z M32.8221572,12.3427569 L32.0354524,10.9640316 L33.2137231,10.3247943 L34.0004279,11.7034538 L32.8221572,12.3427569 Z M23.4420388,14.1509491 L22.2851398,13.4755558 L23.1162733,12.1220083 L24.2731723,12.7973358 L23.4420388,14.1509491 Z M34.3955669,15.1000758 L33.6088621,13.7214821 L34.7871327,13.082179 L35.5737701,14.4608385 L34.3955669,15.1000758 Z M21.7797717,16.8582414 L20.6228727,16.1829139 L21.4540062,14.8292349 L22.6109053,15.5046281 L21.7797717,16.8582414 Z M35.9689765,17.8574606 L35.1822717,16.4788011 L36.360475,15.839498 L37.1471798,17.2181575 L35.9689765,17.8574606 Z M20.1175047,19.5655994 L18.9606057,18.8902719 L19.7917392,17.5365929 L20.9486382,18.2119204 L20.1175047,19.5655994 Z M37.5423862,20.6148453 L36.7556814,19.23612 L37.9338846,18.5968827 L38.7205894,19.9755422 L37.5423862,20.6148453 Z M18.4552376,22.2729574 L17.2982712,21.5975642 L18.1294047,20.2438852 L19.2863712,20.9192784 L18.4552376,22.2729574 Z M39.1157284,23.3720985 L38.329091,21.993439 L39.5072943,21.3542674 L40.2939317,22.7329927 L39.1157284,23.3720985 Z M16.7929032,24.9802497 L15.6360042,24.3049222 L16.4671377,22.9512432 L17.6240367,23.6265707 L16.7929032,24.9802497 Z M40.6891381,26.129549 L39.9024333,24.7508895 L41.0806365,24.1115864 L41.8673413,25.4902459 L40.6891381,26.129549 Z M15.1306361,27.687542 L13.9737371,27.0121487 L14.8048706,25.6585355 L15.9617697,26.333863 L15.1306361,27.687542 Z M42.2624803,28.8869337 L41.4757755,27.5082084 L42.6540461,26.8689711 L43.440751,28.2476306 L42.2624803,28.8869337 Z M13.4683691,30.3948343 L12.3114701,29.7195067 L13.1426036,28.3658277 L14.2995026,29.041221 L13.4683691,30.3948343 Z M43.83589,31.6442526 L43.0491851,30.2655932 L44.2274558,29.6262901 L45.0141606,31.0050153 L43.83589,31.6442526 Z M11.8060346,33.1021923 L10.6491356,32.4268648 L11.4802691,31.0731857 L12.6372356,31.7485133 L11.8060346,33.1021923 Z M45.4092996,34.4016374 L44.6225948,33.0229779 L45.8008654,32.3836748 L46.5875703,33.7623343 L45.4092996,34.4016374 Z M10.1437676,35.8095503 L8.98686855,35.134157 L9.81800208,33.780478 L10.9749011,34.4558713 L10.1437676,35.8095503 Z M46.9827093,37.1589563 L46.1960044,35.7802968 L47.3742751,35.1410595 L48.1609799,36.5196533 L46.9827093,37.1589563 Z M8.48150054,38.5167768 L7.32460151,37.8414493 L8.15573503,36.487836 L9.31263406,37.1631636 L8.48150054,38.5167768 Z M48.5561189,39.916341 L47.7694141,38.5376816 L48.9476847,37.8983785 L49.7343896,39.2771037 L48.5561189,39.916341 Z M6.81923349,41.2241349 L5.66233446,40.5487416 L6.49346799,39.1951283 L7.65036702,39.8704559 L6.81923349,41.2241349 Z M50.1294611,42.6737258 L49.3427563,41.2950005 L50.5209595,40.6556975 L51.3076644,42.0344227 L50.1294611,42.6737258 Z M7.22765391,44.2922636 L5.60974814,44.2672174 L5.62774885,43.1645922 L5.15696645,43.9314271 L4,43.2560996 L4.83113352,41.9024206 L5.98809997,42.5778139 L5.75672017,42.9545589 L7.24902553,42.977633 L7.22765391,44.2922636 Z M10.4633306,44.3422245 L8.84549226,44.3172441 L8.8669313,43.0025478 L10.4847696,43.027594 L10.4633306,44.3422245 Z M13.6990073,44.392317 L12.0812364,44.3672708 L12.1025406,43.0526402 L13.7204463,43.0776864 L13.6990073,44.392317 Z M16.934684,44.4423437 L15.3167782,44.4172975 L15.3382173,43.1026669 L16.9559882,43.1277131 L16.934684,44.4423437 Z M20.1702933,44.4924361 L18.5525223,44.4673899 L18.573894,43.1527593 L20.1917323,43.1778055 L20.1702933,44.4924361 Z M23.40597,44.5423971 L21.788199,44.5173509 L21.8095032,43.2027203 L23.427409,43.2277665 L23.40597,44.5423971 Z M26.6417141,44.5924895 L25.0238083,44.5674433 L25.0452473,43.2528127 L26.6630857,43.2778589 L26.6417141,44.5924895 Z M29.8773908,44.6425162 L28.259485,44.61747 L28.2809915,43.3028394 L29.8987624,43.3278856 L29.8773908,44.6425162 Z M33.113,44.6926086 L31.4951617,44.6675624 L31.5165333,43.3529318 L33.1344391,43.3779123 L33.113,44.6926086 Z M36.3487442,44.7425696 L34.7308384,44.7175234 L34.75221,43.4028928 L36.3700484,43.427939 L36.3487442,44.7425696 Z M39.5844209,44.7925963 L37.9665825,44.7676158 L37.9878867,43.4529852 L39.6057251,43.4779657 L39.5844209,44.7925963 Z M42.8200301,44.8426887 L41.2022592,44.8176425 L41.2235634,43.5030119 L42.8414692,43.5280581 L42.8200301,44.8426887 Z M46.0557742,44.8926497 L44.4379359,44.8677349 L44.4592401,43.5531044 L46.0770784,43.5780191 L46.0557742,44.8926497 Z M49.2913835,44.9427421 L47.6735452,44.9176959 L47.6950516,43.6030653 L49.3127551,43.6281115 L49.2913835,44.9427421 Z M53,45 L50.9092219,44.9677883 L50.9238517,44.0659273 L50.916166,44.0523853 L50.9241887,44.0480465 L50.9305935,43.6531578 L51.6320141,43.6640045 L52.0943692,43.4131479 L53,45 Z" id="Fill-17" fill="#FEFEFE"></path>
                </g>
            </g>
        </g>
    </g>
</svg>