<?xml version="1.0" encoding="UTF-8"?>
<svg width="60px" height="60px" viewBox="0 0 60 60" version="1.1" xmlns="http://www.w3.org/2000/svg" xmlns:xlink="http://www.w3.org/1999/xlink">
    <title>icon2</title>
    <defs>
        <polygon id="path-1" points="0.0521 0.0568666667 6.96263333 0.0568666667 6.96263333 6.96738667 0.0521 6.96738667"></polygon>
        <polygon id="path-3" points="0.00566730769 0.0124317308 6.98270192 0.0124317308 6.98270192 6.98947981 0.00566730769 6.98947981"></polygon>
    </defs>
    <g id="页面-1" stroke="none" stroke-width="1" fill="none" fill-rule="evenodd">
        <g id="技术方案" transform="translate(-907.000000, -1158.000000)">
            <g id="分组-3" transform="translate(907.000000, 1158.000000)">
                <g id="icon2" transform="translate(30.000000, 30.000000) scale(1, -1) translate(-30.000000, -30.000000) translate(0.000000, 1.000000)">
                    <g id="编组" transform="translate(26.000000, 0.000000)">
                        <mask id="mask-2" fill="white">
                            <use xlink:href="#path-1"></use>
                        </mask>
                        <g id="Clip-2"></g>
                        <path d="M6.96263333,3.51212 C6.96263333,5.42045333 5.41563333,6.96738667 3.50736667,6.96738667 C1.59903333,6.96738667 0.0521,5.42045333 0.0521,3.51212 C0.0521,1.60378667 1.59903333,0.0568533333 3.50736667,0.0568533333 C5.41563333,0.0568533333 6.96263333,1.60378667 6.96263333,3.51212" id="Fill-1" fill="#FEFEFE" mask="url(#mask-2)"></path>
                    </g>
                    <path d="M33,54.5000338 C33,56.4330545 31.4329719,58 29.5,58 C27.5669606,58 26,56.4330545 26,54.5000338 C26,52.567013 27.5669606,51 29.5,51 C31.4329719,51 33,52.567013 33,54.5000338" id="Fill-3" fill="#FEFEFE"></path>
                    <g id="编组" transform="translate(53.000000, 26.000000)">
                        <mask id="mask-4" fill="white">
                            <use xlink:href="#path-3"></use>
                        </mask>
                        <g id="Clip-6"></g>
                        <path d="M6.98271538,3.50098942 C6.98271538,5.42760481 5.42084038,6.98947981 3.49415769,6.98947981 C1.56754231,6.98947981 0.00566730769,5.42760481 0.00566730769,3.50098942 C0.00566730769,1.57430673 1.56754231,0.0124317308 3.49415769,0.0124317308 C5.42084038,0.0124317308 6.98271538,1.57430673 6.98271538,3.50098942" id="Fill-5" fill="#FEFEFE" mask="url(#mask-4)"></path>
                    </g>
                    <path d="M7,29.5000338 C7,31.432987 5.43297189,33 3.5,33 C1.56696058,33 0,31.432987 0,29.5000338 C0,27.567013 1.56696058,26 3.5,26 C5.43297189,26 7,27.567013 7,29.5000338" id="Fill-7" fill="#FEFEFE"></path>
                    <path d="M29.5000341,4.35516773 C27.9369131,4.35516773 26.4074678,4.98301694 24.9542357,6.22130145 C23.4981405,7.4619575 22.183701,9.25165976 21.0474559,11.5406058 C18.6717575,16.3264484 17.363385,22.7045453 17.363385,29.5000339 C17.363385,36.2955224 18.6717575,42.6736194 21.0474559,47.4593942 C22.183701,49.7483402 23.4981405,51.5380425 24.9542357,52.7786986 C26.4074678,54.0169831 27.9369131,54.6448323 29.5000341,54.6448323 C31.063155,54.6448323 32.5926004,54.0169831 34.0458325,52.7786986 C35.5019277,51.5380425 36.8163672,49.7483402 37.9526123,47.4593942 C40.3283107,42.6736194 41.636615,36.2955224 41.636615,29.5000339 C41.636615,22.7045453 40.3283107,16.3264484 37.9526123,11.5406058 C36.8163672,9.25165976 35.5019277,7.4619575 34.0458325,6.22130145 C32.5925322,4.98301694 31.063155,4.35516773 29.5000341,4.35516773 M29.5000341,56 C25.8028747,56 22.3668036,53.1798282 19.8247722,48.0590559 C17.3583405,43.0904012 16,36.4994074 16,29.5000339 C16,22.5006603 17.3583405,15.9095988 19.8247722,10.9410119 C22.3668036,5.8201718 25.8028747,3 29.5000341,3 C33.1971934,3 36.6332646,5.8201718 39.1752278,10.9410119 C41.6416595,15.9095988 43,22.5006603 43,29.5000339 C43,36.4993397 41.6416595,43.0904012 39.1752278,48.0590559 C36.6332646,53.1798282 33.1971934,56 29.5000341,56" id="Fill-9" fill="#FEFEFE"></path>
                    <path d="M31.5616979,23.4550931 C31.0440793,23.4466555 30.5187488,23.4423285 30.0002659,23.4423285 L29.9756016,23.4423285 L29.9756016,22 L30.0002659,22 C30.5253969,22 31.0575084,22.004327 31.5817086,22.0129088 L31.5616979,23.4550931 Z M26.804938,23.4960552 L26.763454,22.0544479 C27.2933716,22.0364909 27.8337267,22.0227888 28.369561,22.0137021 L28.3902365,23.4558864 C27.8613826,23.4648288 27.3279416,23.4783867 26.804938,23.4960552 L26.804938,23.4960552 Z M34.7312314,23.5611042 C34.2082278,23.5344933 33.6751856,23.5120651 33.14693,23.4943966 L33.1878156,22.0527892 C33.7231181,22.0706741 34.2634067,22.0933908 34.7935238,22.1203623 L34.7312314,23.5611042 Z M23.6381967,23.6593268 L23.552902,22.2199551 C24.0810246,22.1831757 24.6209808,22.150507 25.1577459,22.1228864 L25.2207696,23.5635562 C24.6913174,23.5908162 24.1588735,23.6230523 23.6381967,23.6593268 L23.6381967,23.6593268 Z M37.8942497,23.7802661 C37.3743042,23.7343279 36.8425916,23.6925004 36.3138707,23.6560095 L36.3984341,22.2165656 C36.9348668,22.2536335 37.4743576,22.29611 38.0020814,22.3426973 L37.8942497,23.7802661 Z M20.4806963,23.9407251 L20.3472031,22.5056804 C20.8715363,22.4482757 21.4105617,22.3949095 21.9492548,22.3469521 L22.0578177,23.7845209 C21.5274348,23.8316851 20.9967859,23.8842579 20.4806963,23.9407251 L20.4806963,23.9407251 Z M41.0448361,24.1238287 C40.5305415,24.056472 40.0012222,23.9930816 39.4715706,23.9355327 L39.6041995,22.5003438 C40.1427596,22.5589744 40.6810538,22.6233744 41.2041903,22.6919571 L41.0448361,24.1238287 Z M17.3398161,24.3554667 L17.1502796,22.9278499 C17.6702251,22.8466468 18.2075885,22.7694101 18.7473452,22.6983033 L18.9075637,24.1301028 C18.3775796,24.1999115 17.8500554,24.2757059 17.3398161,24.3554667 L17.3398161,24.3554667 Z M44.1737498,24.6116242 C43.6676988,24.5190267 43.1425014,24.4303235 42.6127832,24.3479666 L42.8013225,22.9202777 C43.3419434,23.0042933 43.8781102,23.0947994 44.3949311,23.1893441 L44.1737498,24.6116242 Z M14.2277884,24.9298019 L13.9681813,23.5151661 C14.4795508,23.4047558 15.0140556,23.2981678 15.5567374,23.1982865 L15.7791153,24.6202782 C15.2487989,24.7178517 14.726859,24.8219878 14.2277884,24.9298019 L14.2277884,24.9298019 Z M47.2638389,25.2787733 C46.7714164,25.1540118 46.2537312,25.0331447 45.7253427,24.9195613 L45.9837531,23.5047092 C46.5267674,23.6214657 47.0592113,23.7457944 47.566193,23.8741616 L47.2638389,25.2787733 Z M11.1706074,25.7127699 L10.8124094,24.3237354 C11.3109481,24.1725073 11.8404003,24.0253898 12.3858744,23.8864214 L12.6896911,25.2906003 C12.1622998,25.4248811 11.6511963,25.5669505 11.1706074,25.7127699 L11.1706074,25.7127699 Z M50.2746164,26.1944355 C49.8106476,26.0240965 49.3090508,25.8572912 48.7836539,25.6987793 L49.1399904,24.30924 C49.6887221,24.4748193 50.2139195,24.6494132 50.7009571,24.8282619 L50.2746164,26.1944355 Z M8.240072,26.8088674 L7.71214883,25.4850262 C8.18077123,25.2652154 8.69885525,25.0500921 9.2519746,24.8457141 L9.68070858,26.2109502 C9.16096254,26.4029962 8.67625182,26.604201 8.240072,26.8088674 L8.240072,26.8088674 Z M53.0660741,27.5202238 C52.6794889,27.2714222 52.2256917,27.0252888 51.7173139,26.788747 L52.2415141,25.4632471 C52.8027441,25.7243806 53.3084627,25.9991442 53.7445096,26.2798213 L53.0660741,27.5202238 Z M5.78759931,28.4750453 L4.81166276,27.4954158 C5.1616836,27.0851455 5.63243337,26.6860532 6.2107489,26.3091006 L6.89550002,27.5453925 C6.42494969,27.8521036 6.05219246,28.1649447 5.78759931,28.4750453 L5.78759931,28.4750453 Z M54.6706521,29.4775357 C54.6638046,29.1507762 54.500528,28.8028145 54.1854095,28.443242 L55.1489807,27.4494776 C55.6989754,28.0769626 55.9853078,28.7482223 56,29.4445785 L54.6706521,29.4775357 Z M4.83154049,31.5276615 C4.28447088,30.8950562 4.00472013,30.2188926 4,29.5177046 L5.32954734,29.5071756 C5.33180769,29.8336466 5.4904971,30.1814642 5.80129433,30.5408203 L4.83154049,31.5276615 Z M53.8122534,32.6761876 L53.1243777,31.441915 C53.5938643,31.1339779 53.9645607,30.8201993 54.2262952,30.5090891 L55.2084144,31.4814348 C54.8606539,31.8947341 54.3909014,32.296711 53.8122534,32.6761876 L53.8122534,32.6761876 Z M7.7353506,33.5257912 C7.17365524,33.2632875 6.66826902,32.9872979 6.23308642,32.7054669 L6.91477942,31.4670837 C7.30003503,31.7166786 7.75310094,31.9636052 8.26141231,32.2011567 L7.7353506,33.5257912 Z M50.7723573,34.1454877 L50.3423602,32.7806843 C50.8621727,32.5879171 51.3465511,32.3862075 51.7819996,32.1810363 L52.3117177,33.50394 C51.8436937,33.724472 51.3258091,33.9403164 50.7723573,34.1454877 L50.7723573,34.1454877 Z M10.836276,34.6834762 C10.2879432,34.5175363 9.76287872,34.3424376 9.27557525,34.1629399 L9.70304609,32.797199 C10.1672143,32.968187 10.6686781,33.1353529 11.1935432,33.2941533 L10.836276,34.6834762 Z M47.6388564,35.1073765 L47.3342419,33.7033419 C47.8616997,33.5687726 48.3726703,33.4264148 48.8530598,33.2802348 L49.212122,34.6689808 C48.7137162,34.8205695 48.1844635,34.9681197 47.6388564,35.1073765 L47.6388564,35.1073765 Z M13.9922473,35.4899542 C13.4489671,35.3729092 12.9165897,35.248292 12.4098739,35.1196363 L12.7129594,33.7152411 C13.2050495,33.8402188 13.7226681,33.9613744 14.2512561,34.0752463 L13.9922473,35.4899542 Z M44.4681263,35.7971702 L44.2453495,34.3752506 C44.7751342,34.2775328 45.2970076,34.1732525 45.796477,34.0650779 L46.0566825,35.4794973 C45.5448476,35.5903402 45.0104093,35.6972168 44.4681263,35.7971702 L44.4681263,35.7971702 Z M17.1744786,36.0759001 C16.6334587,35.991596 16.0972919,35.9008015 15.5810029,35.8061126 L15.802716,34.3839767 C16.3082352,34.4767184 16.8334326,34.565638 17.3635497,34.6482113 L17.1744786,36.0759001 Z M41.2777845,36.2984514 L41.1169677,34.866724 C41.6479489,34.7965548 42.1754067,34.720544 42.6847153,34.6407833 L42.8747171,36.0683279 C42.3557024,36.1496031 41.8184719,36.2270562 41.2777845,36.2984514 L41.2777845,36.2984514 Z M20.371535,36.4969158 C19.8330414,36.4382131 19.2947473,36.3735246 18.7716107,36.3048698 L18.9314303,34.8729982 C19.4456584,34.9404991 19.9749777,35.0041058 20.5045629,35.0618711 L20.371535,36.4969158 Z M38.0758749,36.6508123 L37.9668466,35.2133156 C38.4966977,35.1660072 39.0273466,35.1132901 39.543968,35.0566066 L39.6778601,36.4915792 C39.1529951,36.5492002 38.6140361,36.6027827 38.0758749,36.6508123 L38.0758749,36.6508123 Z M23.5772339,36.7817036 C23.0402029,36.7444194 22.5006456,36.7018707 21.9735202,36.6551393 L22.0817508,35.2175704 C22.6011644,35.2636528 23.132877,35.3056246 23.6621298,35.3423319 L23.5772339,36.7817036 Z M34.8674503,36.8758876 L34.8040277,35.4352178 C35.3341447,35.4077415 35.8665886,35.3753612 36.3866006,35.3390145 L36.4722277,36.7783862 C35.9448364,36.8152377 35.4048802,36.8480507 34.8674503,36.8758876 L34.8674503,36.8758876 Z M26.7878524,36.9463454 C26.2524834,36.9283163 25.7122613,36.9054554 25.1822108,36.8783396 L25.2448356,35.4375977 C25.7677727,35.4643529 26.3008149,35.4869253 26.8290705,35.5046659 L26.7878524,36.9463454 Z M31.6556351,36.9858652 L31.6345608,35.5436809 C32.1634811,35.5345942 32.6969222,35.5209642 33.2199258,35.5030794 L33.2617422,36.9446867 C32.7318246,36.9627879 32.1914695,36.9766343 31.6556351,36.9858652 L31.6556351,36.9858652 Z M30.0493287,37 L30.0002659,37 C29.4666254,37 28.9262039,36.9955288 28.3939595,36.9866585 L28.4143026,35.5444742 C28.9398324,35.5532003 29.4734064,35.5576715 30.0002659,35.5576715 L30.0493287,35.5576715 L30.0493287,37 Z" id="Fill-11" fill="#FEFEFE"></path>
                    <path d="M29.5,3.3589692 C26.10227,3.3589692 22.8065759,4.03682303 19.70435,5.37370898 C16.7076945,6.66506946 14.0162133,8.514015 11.7047992,10.8690407 C9.3933184,13.2241343 7.57867928,15.9663303 6.31123289,19.0195943 C4.99910409,22.1802849 4.3338031,25.5382298 4.3338031,29 C4.3338031,32.4618381 4.99910409,35.8197831 6.31123289,38.9804736 C7.57867928,42.0336697 9.3933184,44.7759337 11.7047992,47.1309593 C14.0162133,49.4860529 16.7076945,51.3349305 19.70435,52.626291 C22.8065759,53.963177 26.10227,54.6410308 29.5,54.6410308 C32.89773,54.6410308 36.1934241,53.963177 39.2955834,52.626291 C42.2923055,51.3349305 44.9837201,49.4860529 47.2952008,47.1309593 C49.6066149,44.7759337 51.4213207,42.0336697 52.6887671,38.9804736 C54.0008959,35.8197831 54.6661969,32.4618381 54.6661969,29 C54.6661969,25.5382298 54.0008959,22.1802849 52.6887671,19.0195943 C51.4213207,15.9663303 49.6066149,13.2241343 47.2952008,10.8690407 C44.9837201,8.514015 42.2923055,6.66506946 39.2955834,5.37370898 C36.1934241,4.03682303 32.89773,3.3589692 29.5,3.3589692 M29.5,56 C25.9228068,56 22.4522511,55.2860655 19.1848337,53.8779696 C16.0291222,52.5180491 13.1951908,50.5713257 10.761667,48.0918865 C8.32814325,45.6125151 6.4174703,42.7251132 5.08273354,39.5098601 C3.70071346,36.1807253 3,32.6446874 3,29 C3,25.3553805 3.70071346,21.8193427 5.08273354,18.4902079 C6.4174703,15.2749547 8.32814325,12.3875528 10.761667,9.90811355 C13.1951908,7.4287422 16.0291222,5.48201882 19.184767,4.1220304 C22.4522511,2.71393447 25.9228068,2 29.5,2 C33.0771932,2 36.5477489,2.71393447 39.8151663,4.1220304 C42.9708778,5.48201882 45.8048092,7.4287422 48.238333,9.90811355 C50.6717901,12.3875528 52.582463,15.2749547 53.9171998,18.4902079 C55.2992865,21.8193427 56,25.3553805 56,29 C56,32.6446874 55.2992865,36.1807253 53.9171998,39.5098601 C52.582463,42.7251132 50.6717901,45.6125151 48.238333,48.0918865 C45.8048092,50.5713257 42.9708778,52.5180491 39.8151663,53.8779696 C36.5477489,55.2860655 33.0771932,56 29.5,56" id="Fill-13" fill="#FEFEFE"></path>
                </g>
            </g>
        </g>
    </g>
</svg>